<?xml version="1.0" encoding="utf-8"?>
<svg version="1.1" xmlns:xlink="http://www.w3.org/1999/xlink" width="24px" height="24px" xmlns="http://www.w3.org/2000/svg">
  <g transform="matrix(1 0 0 1 -1106 -1272 )">
    <path d="M 24 12  C 24 5.375999999999976  18.624000000000024 0  12 0  C 5.375999999999976 0  0 5.375999999999976  0 12  C 0 18.624000000000024  5.375999999999976 24  12 24  C 14.197208791553976 24  16.257103021745934 23.408491120286726  18.029024515854417 22.376131535581862  C 21.598974955852782 20.296201603072177  24 16.426791208446048  24 12  Z M 20.40000000000009 7.2000000000000455  L 9.599999999999909 18  L 3.599999999999909 12  L 5.291999999999916 10.307999999999993  L 9.599999999999909 14.604000000000042  L 18.708000000000084 5.496000000000095  L 20.40000000000009 7.2000000000000455  Z " fill-rule="nonzero" fill="#333333" stroke="none" transform="matrix(1 0 0 1 1106 1272 )" />
  </g>
</svg>