<?xml version="1.0" encoding="utf-8"?>
<svg version="1.1" xmlns:xlink="http://www.w3.org/1999/xlink" width="13px" height="17px" xmlns="http://www.w3.org/2000/svg">
  <g transform="matrix(1 0 0 1 -39 -758 )">
    <path d="M 13 5.1  L 8.125 0  L 1.625 0  C 0.7312500000000003 0  0.008124999999999827 0.765  0.008124999999999827 1.7000000000000002  L 0 15.3  C 0 16.235  0.7231249999999998 17  1.6168750000000003 17  L 11.375 17  C 12.26875 17  13 16.235  13 15.3  L 13 5.1  Z M 9.75 11.899999999999999  L 9.75 13.600000000000001  L 3.25 13.600000000000001  L 3.25 11.899999999999999  L 9.75 11.899999999999999  Z M 9.75 8.5  L 9.75 10.2  L 3.25 10.2  L 3.25 8.5  L 9.75 8.5  Z M 11.78125 5.949999999999999  L 7.3125 5.949999999999999  L 7.3125 1.275  L 11.78125 5.949999999999999  Z " fill-rule="nonzero" fill="#515f6e" stroke="none" transform="matrix(1 0 0 1 39 758 )" />
  </g>
</svg>