<?xml version="1.0" encoding="utf-8"?>
<svg version="1.1" xmlns:xlink="http://www.w3.org/1999/xlink" width="17px" height="13px" xmlns="http://www.w3.org/2000/svg">
  <g transform="matrix(1 0 0 1 -38 -711 )">
    <path d="M 17 1.625  C 17 0.7312500000000003  16.235 0  15.3 0  L 1.7000000000000002 0  C 0.765 0  0.00849999999999982 0.7312500000000003  0.00849999999999982 1.625  L 0 11.375  C 0 12.26875  0.765 13  1.7000000000000002 13  L 15.3 13  C 16.235 13  17 12.26875  17 11.375  L 17 1.625  Z M 15.3 1.625  L 15.3 3.25  L 8.5 7.3125  L 1.7000000000000002 3.25  L 1.7000000000000002 1.625  L 8.5 5.6875  L 15.3 1.625  Z " fill-rule="nonzero" fill="#515f6e" stroke="none" transform="matrix(1 0 0 1 38 711 )" />
  </g>
</svg>