<?xml version="1.0" encoding="utf-8"?>
<svg version="1.1" xmlns:xlink="http://www.w3.org/1999/xlink" width="129px" height="34px" xmlns="http://www.w3.org/2000/svg">
  <g transform="matrix(1 0 0 1 -262 -20 )">
    <path d="M 13.017125841899542 14.33572781065044  L 13.034685572492833 14.33572781065044  L 11.511378943637112 14.33572781065044  L 11.151404466501617 12.719803324880672  C 9.878323998582857 14.184374002065823  8.72377171215902 14.66514492345263  7.068767103863195 14.66514492345263  C 3.0080794044664003 14.66514492345263  0.5760567174753533 11.393231708462594  0.5760567174753533 7.466935850474329  C 0.5760567174753533 3.540639992486092  3.0124693371146805 0.268726777496056  7.073157036511475 0.268726777496056  C 10.036361573910824 0.268726777496056  12.52106345267589 1.8712965154503252  12.881037929811214 4.987404339250617  L 10.567543424317194 4.987404339250617  C 10.339266926621917 3.1800618014467545  8.78523076923176 2.2541326195174918  7.05559730592023 2.2541326195174918  C 4.149461892945112 2.2541326195174918  2.9378404820989203 4.853856861087678  2.9378404820989203 7.489193763501163  C 2.9378404820989203 10.124530665915643  4.153851825593506 12.724254907485829  7.05559730592023 12.724254907485829  C 9.483230060262827 12.764319150934313  10.813379652605931 11.28194214332646  10.852889046436928 8.953764440687337  L 7.248754342430857 8.953764440687337  L 7.248754342430857 7.10190607682884  L 13.017125841899542 7.10190607682884  L 13.017125841899542 14.33572781065044  Z M 22.600348812478387 9.354406875176153  C 22.600348812478387 11.077169343476896  21.74431194611924 12.875608716070417  19.808351648352016 12.875608716070417  C 17.872391350584792 12.875608716070417  17.016354484225644 11.094975673898546  17.016354484225644 9.354406875176153  C 17.016354484225644 7.61383807645376  17.872391350584792 5.851011364703567  19.808351648352016 5.851011364703567  C 21.74431194611924 5.851011364703567  22.600348812478387 7.631644406875438  22.600348812478387 9.354406875176153  Z M 14.856507621411424 9.354406875176153  C 14.856507621411424 12.385934629473297  16.6607699397386 14.607274349582497  19.808351648352016 14.607274349582497  C 22.960323289613825 14.607274349582497  24.764585607941 12.412644125105288  24.764585607941 9.354406875176153  C 24.764585607941 6.296169625247018  22.960323289613825 4.097087818164681  19.808351648352016 4.097087818164681  C 16.65638000709032 4.097087818164681  14.856507621411424 6.3228791208790085  14.856507621411424 9.354406875176153  Z M 35.186285714285646 4.3730859397008714  L 35.186285714285646 14.33572781065044  L 33.06155831265602 14.33572781065044  L 33.06155831265602 12.955737202968379  L 33.022048918822975 12.955737202968379  C 32.440708662438794 13.964562964307731  31.38214957908849 14.592415289433319  30.23005175469666 14.611725932187653  C 27.66633108826568 14.611725932187653  26.568847926268177 13.302960646191224  26.568847926268177 10.703236404621066  L 26.568847926268177 4.386440687517364  L 28.73308472173079 4.386440687517364  L 28.73308472173079 10.489560439560137  C 28.73308472173079 12.243483986099022  29.43547394541025 12.875608716070417  30.61197589507367 12.875608716070417  C 32.416238213398856 12.875608716070417  33.022048918822975 11.704842490842111  33.022048918822975 10.16014332675897  L 33.022048918822975 4.3730859397008714  L 35.186285714285646 4.3730859397008714  Z M 40.04594115561912 14.33572781065044  L 36.49448564338911 4.386440687517364  L 38.847489542716005 4.386440687517364  L 41.33219142148101 12.029808021039145  L 41.362920950017326 12.029808021039145  L 43.755434243175216 4.386440687517364  L 45.99429989365558 4.386440687517364  L 42.482353775256456 14.33572781065044  L 40.04594115561912 14.33572781065044  Z M 54.04982630273025 8.486348267117052  L 49.001403757532216 8.486348267117052  C 49.001242824117924 8.474457190190265  49.00116235456977 8.462565133455968  49.00116235456977 8.450672936745121  C 49.00116235456977 7.014884884360441  50.14897919410555 5.850948695174964  51.56488302100075 5.850948695174964  C 51.57081678582472 5.850948695174964  51.57675053277097 5.85096958514319  51.58268415455461 5.851011364703567  C 53.044531726337766 5.851011364703567  53.97519744771449 7.10190607682884  54.04982630273025 8.486348267117052  Z M 49.00579369018061 9.906403118249585  L 56.21406309819287 9.928661031276391  C 56.57842750797647 6.946100685639067  54.677586671393954 4.097087818164681  51.58268415455461 4.097087818164681  C 48.65898901098819 4.097087818164681  46.837166962069716 6.5232003381234165  46.837166962069716 9.349955292570996  C 46.837166962069716 12.408192542500132  48.56241049273285 14.585016436554668  51.6397532789789 14.585016436554668  C 53.78204041120182 14.585016436554668  55.59069266217739 13.37418596787785  56.08236511875282 11.197362073823342  L 54.03226657213679 11.197362073823342  C 53.654732364410165 12.296902977365022  52.895274016306416 12.853350803043611  51.6397532789789 12.853350803043611  C 49.835490960651725 12.853350803043611  49.00579369018061 11.468908612754376  49.00579369018061 9.906403118249585  Z M 57.869067706486646 14.33572781065044  L 57.869067706486646 4.386440687517364  L 59.90160652250921 4.386440687517364  L 59.90160652250921 6.3228791208790085  L 59.936725983693975 6.3228791208790085  C 60.341445281369715 5.0476422911304155  61.48374610555635 4.160703003416927  62.803352002835936 4.097087818164681  C 63.07660983550625 4.094414734150433  63.34964506151357 4.113765834691577  63.61987947536403 4.154958392035809  L 63.61987947536403 6.2739117122191885  C 63.311907968735284 6.222122508211186  63.00110977784033 6.189416926228716  62.6892137539873 6.175976894899577  C 61.209806451612735 6.175976894899577  60.03330450194926 7.3868073635763665  60.03330450194926 9.581437588052552  L 60.03330450194926 14.33572781065044  L 57.869067706486646 14.33572781065044  Z M 64.56371499468179 14.33572781065044  L 64.54615526409049 4.386440687517364  L 66.59625381070634 4.386440687517364  L 66.59625381070634 5.851011364703567  L 66.6357632045374 5.891075608152022  C 67.2687094357799 4.779265991831863  68.4427728733857 4.098950916982119  69.70871605813511 4.110442565981174  C 71.83783339241506 4.110442565981174  73.18115278270113 5.263402460786807  73.18115278270113 7.498096928712499  L 73.18115278270113 14.33572781065044  L 71.01691598723863 14.33572781065044  L 71.01691598723863 8.10351216305088  C 70.98179652605393 6.545458251150251  70.37159588798352 5.877720860336552  69.0985154200647 5.877720860336552  C 67.65422757887285 5.877720860336552  66.7279517901444 7.0306807551421855  66.7279517901444 8.495251432328388  L 66.7279517901444 14.33572781065044  L 64.56371499468179 14.33572781065044  Z M 82.18051471109561 8.486348267117052  L 77.13209216589763 8.486348267117052  C 77.13193123248533 8.474457190189241  77.13185076293519 8.462565133455968  77.13185076293519 8.450672936745121  C 77.13185076293519 7.014884884360441  78.27966760247097 5.850948695174964  79.69557142936617 5.850948695174964  C 79.70150519419212 5.850948695174964  79.70743894113639 5.85096958514319  79.71337256292003 5.851011364703567  C 81.17522013470318 5.851011364703567  82.10588585607991 7.10190607682884  82.18051471109561 8.486348267117052  Z M 77.13648209854603 9.906403118249585  L 84.34475150655828 9.928661031276391  C 84.7047259836936 6.946100685639067  82.80827507975937 4.097087818164681  79.71337256292202 4.097087818164681  C 76.7896774193556 4.097087818164681  74.96785537043513 6.5232003381234165  74.96785537043513 9.349955292570996  C 74.96785537043513 12.408192542500132  76.69748883374655 14.585016436554668  79.77044168734432 14.585016436554668  C 81.91711875221552 14.585016436554668  83.7213810705428 13.37418596787785  84.21305352711818 11.197362073823342  L 82.16295498050437 11.197362073823342  C 81.78103084012719 12.296902977365022  81.0215724920235 12.853350803043611  79.77044168734432 12.853350803043611  C 77.96617936901714 12.853350803043611  77.13648209854603 11.468908612754376  77.13648209854603 9.906403118249585  Z M 85.99536618220577 14.33572781065044  L 85.99536618220577 4.386440687517364  L 88.04546472881964 4.386440687517364  L 88.04546472881964 5.770882877805576  L 88.10253385324398 5.770882877805576  C 88.71571425165956 4.680456853501653  89.88216114611333 4.033086721032191  91.11841758241741 4.097087818164681  C 92.31686919532058 4.097087818164681  93.43630202055971 4.617922982999943  93.87090535271273 5.753076547383927  C 94.53886849775398 4.693810646453528  95.70434193339327 4.065746707443054  96.94385820631044 4.097087818164681  C 99.01151648351572 4.097087818164681  100.22752782701218 5.023017000093915  100.22752782701218 7.444677937447523  L 100.22752782701218 14.33572781065044  L 98.06329103154951 14.33572781065044  L 98.06329103154951 8.548670423593364  C 98.06329103154951 6.968358598665873  97.96671251329417 5.877720860336552  96.28097837646209 5.877720860336552  C 94.81913080467882 5.877720860336552  94.19137043601506 6.861520616135948  94.19137043601506 8.548670423593364  L 94.19137043601506 14.33572781065044  L 92.02713364055245 14.33572781065044  L 92.02713364055245 7.947706771860112  C 92.02713364055245 6.5810709119935495  91.58814037575308 5.851011364703567  90.30189010988931 5.851011364703567  C 89.18245728465018 5.851011364703567  88.15960297766844 6.776940546632801  88.15960297766844 8.428477693246919  L 88.15960297766844 14.33572781065044  L 85.99536618220577 14.33572781065044  Z M 109.24005955334957 8.486348267117052  L 104.20041687344826 8.486348267117052  C 104.20025635999525 8.474472713027183  104.20017610044283 8.462596182962272  104.20017610044283 8.450719513468755  C 104.20017610044283 7.014931461084046  105.34799293997668 5.850995271898597  106.76389676687381 5.850995271898597  C 106.76690365328778 5.850995271898597  106.76991053737447 5.8510006361750015  106.77291740517592 5.851011364703567  C 108.23476497695918 5.851011364703567  109.16543069833392 7.10190607682884  109.24005955334957 8.486348267117052  Z M 104.19602694080197 9.906403118249585  L 111.41307621410886 9.928661031276391  C 111.77305069124418 6.946100685639067  109.87220985466172 4.097087818164681  106.77291740517592 4.097087818164681  C 103.84922226160961 4.097087818164681  102.02740021269102 6.5232003381234165  102.02740021269102 9.349955292570996  C 102.02740021269102 12.408192542500132  103.75264374335427 14.585016436554668  106.8299865296002 14.585016436554668  C 108.97227366182125 14.585016436554668  110.78092591279676 13.37418596787785  111.27259836937225 11.197362073823342  L 109.22249982275827 11.197362073823342  C 108.84496561502948 12.296902977365022  108.08550726692579 12.853350803043611  106.8299865296002 12.853350803043611  C 105.02572421127309 12.853350803043611  104.19602694080197 11.468908612754376  104.19602694080197 9.906403118249585  Z M 113.04613115916311 14.33572781065044  L 113.0636908897564 4.386440687517364  L 115.11378943637027 4.386440687517364  L 115.11378943637027 5.851011364703567  L 115.15329883020127 5.891075608152022  C 115.78624506144382 4.779265991831863  116.96030849905162 4.098950916982119  118.22625168380102 4.110442565981174  C 120.35536901807893 4.110442565981174  121.69868840836517 5.263402460786807  121.69868840836517 7.498096928712499  L 121.69868840836517 14.33572781065044  L 119.50372208436823 14.33572781065044  L 119.50372208436823 8.10351216305088  C 119.46860262318353 6.545458251150251  118.85840198511107 5.877720860336552  117.58532151719231 5.877720860336552  C 116.14103367600046 5.877720860336552  115.21036795462561 7.0306807551421855  115.21036795462561 8.495251432328388  L 115.21036795462561 14.33572781065044  L 113.04613115916311 14.33572781065044  Z M 122.97615880893221 4.386440687517364  L 122.97176887628592 4.386440687517364  L 124.60482382134018 4.386440687517364  L 124.60482382134018 1.426138254907869  L 126.76906061680268 1.426138254907869  L 126.76906061680268 4.408698600545193  L 128.72258064516132 4.408698600545193  L 128.72258064516132 6.046880999342818  L 126.76906061680268 6.046880999342818  L 126.76906061680268 11.339812717197617  C 126.76906061680268 12.230129238283553  126.84368947181838 12.70644857706418  127.81386458702616 12.70644857706418  C 128.12014946160696 12.719671706546762  128.42686786185067 12.694251329007159  128.7269705778096 12.630771672771374  L 128.7269705778096 14.33572781065044  C 128.25285785182552 14.371340471494761  127.79630485643486 14.451468958391729  127.32219213045079 14.451468958391729  C 125.06576674937912 14.451468958391729  124.64872314781945 13.561152437305793  124.60921375398846 11.909615290692699  L 124.60921375398846 6.024623086314961  L 122.97615880893221 6.024623086314961  L 122.97615880893221 4.386440687517364  Z M 5.308404112017229 32.12425190194452  C 3.372443814250005 32.12425190194452  2.5954257355548975 30.428198929275766  2.5954257355548975 28.718791208791515  C 2.5954257355548975 26.938158166619644  3.31537468982566 25.09965455057764  5.347913505848226 25.09965455057764  C 7.016087912087187 25.09965455057764  8.060891882310557 26.40841983657407  8.060891882310557 28.603050061050254  C 8.060891882310557 30.334715694562306  7.244364409784453 32.12425190194452  5.308404112017229 32.12425190194452  Z M 11 19.84233549356614  L 10.150499822757581 19.84233549356614  L 7.999432825239978 19.84233549356614  L 7.999432825239978 24.926042828966217  L 7.959923431406935 24.926042828966217  C 7.2970436015604605 23.830953508030717  5.927384615384369 23.36798891706559  4.698203473944886 23.36798891706559  C 2.5515264090756204 23.36798891706559  0.4443587380353051 24.943849159387867  0.4443587380353051 28.545179487179098  C 0.4443587380353051 31.527739832816422  1.9457157036515582 33.855917535455546  5.036228287840515 33.855917535455546  C 6.269799361928392 33.855917535455546  7.503370436016155 33.37514661406979  8.074061680255568 32.23999304968578  L 8.109181141438285 32.23999304968578  L 8.109181141438285 33.5754678313142  L 11 33.5754678313142  L 11 19.84233549356614  Z M 21.138501240695234 33.58882257913069  L 21.120941510101886 33.58882257913069  L 18.97426444523262 33.58882257913069  L 18.97426444523262 32.1999288062363  C 18.392924188846393 33.20875456757665  17.334365105498193 33.83660689270124  16.18226728110625 33.855917535455546  C 13.618546614675267 33.855917535455546  12.52106345267589 32.54715224946014  12.52106345267589 29.947428007889982  L 12.52106345267589 23.635083873391466  L 14.68530024813839 23.635083873391466  L 14.68530024813839 29.73375204282908  C 14.68530024813839 31.487675589367967  15.38768947181785 32.11980031933834  16.56419142148127 32.11980031933834  C 18.368453739808558 32.11980031933834  18.97426444523262 30.949034094111028  18.97426444523262 29.40433493002689  L 18.97426444523262 23.617277542969788  L 21.138501240695234 23.617277542969788  L 21.138501240695234 33.58882257913069  Z M 38.127540588443196 24.21824119470304  L 38.127540588443196 24.21378961209686  C 37.728056717476875 22.63347778717042  36.72276214108439 21.480517892363736  34.74729244948617 21.480517892363736  C 31.841157036511163 21.480517892363736  30.62953562566497 24.080242133934917  30.62953562566497 26.71557903634843  C 30.62953562566497 29.350915938761915  31.845546969159557 31.950640180332073  34.74729244948617 31.950640180332073  C 36.854460120524436 31.950640180332073  38.00901240694827 30.35697360758914  38.202169443458956 28.353761435146026  L 40.520053881603246 28.353761435146026  C 40.33128677773885 31.64348098055771  38.035352002836305 33.91823969193189  34.75168238213456 33.91823969193189  C 30.69099468273572 33.91823969193189  28.25897199574672 30.646326476941823  28.25897199574672 26.720030618953587  C 28.25897199574672 22.79373476096532  30.68660475008943 19.521821545975286  34.75168238213456 19.521821545975286  C 37.82463523573222 19.521821545975286  40.21714852889022 21.253487179487365  40.5024941510099 24.21824119470304  L 38.127540588443196 24.21824119470304  Z M 48.42632258064452 30.24123245984785  L 48.4351024459412 30.236780877242694  C 48.4351024459412 31.621223067530906  46.95569514356663 32.12425190194452  46.0074696915986 32.12425190194452  C 45.248011343494795 32.12425190194452  44.014440269408965 31.834899032591807  44.014440269408965 30.855550859396573  C 44.014440269408965 29.70259096459091  44.848527472528474 29.35536752136707  45.77041332860648 29.1995621301773  C 46.69229918468665 29.043756738987554  47.76344275079816 29.043756738987554  48.42632258064452 28.603050061050254  L 48.42632258064452 30.24123245984785  Z M 50.581779510812396 26.252614445383273  L 50.59933924140381 26.230356532356467  C 50.59933924140381 24.133661125199893  48.588750088620884 23.341279421433597  46.64839985820737 23.341279421433597  C 44.484163062744756 23.341279421433597  42.34187593052184 24.093596881750415  42.18822828784204 26.653256879872117  L 44.35246508330465 26.653256879872117  C 44.44904360155999 25.575973889358266  45.30508046791914 25.072945054944654  46.516701878767265 25.072945054944654  C 47.394688408365994 25.072945054944654  48.54924069478989 25.286621020005555  48.54924069478989 26.40841983657407  C 48.54924069478989 27.699378792147797  47.162021978022324 27.525767070536403  45.60798582063012 27.815119939889087  C 43.78616377171164 28.024344322343836  41.832643743353 28.429438339438832  41.832643743353 30.931227763689378  C 41.832643743353 32.876569362261336  43.426189294576204 33.8381112050339  45.19094221907051 33.8381112050339  C 46.43208791791045 33.87351450769199  47.64230348927458 33.442246483208834  48.588750088620884 32.6272807363581  C 48.75995746189392 33.51759725744304  49.38771783055569 33.8381112050339  50.26131442750807 33.8381112050339  C 50.7250425003549 33.814543587791064  51.1838751060713 33.7307639477973  51.62658348103594 33.58882257913069  L 51.62658348103594 32.08863924110119  C 51.45082321068605 32.11561477267307  51.27313429511139 32.1275277834074  51.09540163062752 32.12425190194452  C 50.69591775965915 32.12425190194452  50.581779510812396 31.915027519488774  50.581779510812396 31.371934441626678  L 50.581779510812396 26.252614445383273  Z M 52.93917334278569 33.58882257913069  L 52.93039347749112 23.635083873391466  L 54.97171215880826 23.635083873391466  L 54.97171215880826 25.09965455057764  L 55.0112215526413 25.139718794026123  C 55.64416778388386 24.027909177705936  56.81823122148961 23.347594102856192  58.08417440623907 23.359085751855247  C 60.21329174051698 23.359085751855247  61.55661113080515 24.51204564666091  61.55661113080515 26.746740114586572  L 61.55661113080515 33.58882257913069  L 59.39237433534254 33.58882257913069  L 59.39237433534254 27.329897435897152  C 59.35725487415783 25.771843523997518  58.74705423608742 25.104106133182796  57.473973768166616 25.104106133182796  C 56.029685926976754 25.104106133182796  55.10341013824831 26.257066027989453  55.10341013824831 27.721636705175627  L 55.10341013824831 33.58882257913069  L 52.93917334278569 33.58882257913069  Z M 69.8974831619995 30.218974546821016  L 69.8974831619995 30.236780877242694  C 69.8974831619995 31.621223067530906  68.41807585962499 32.12425190194452  67.46546047500851 32.12425190194452  C 66.7060021269047 32.12425190194452  65.47243105281893 31.834899032591807  65.47243105281893 30.855550859396573  C 65.47243105281893 29.70259096459091  66.30651825593839 29.35536752136707  67.2284041120165 29.1995621301773  C 68.15028996809656 29.043756738987554  69.21704360155974 29.025950408565876  69.8974831619995 28.580792148022425  L 69.8974831619995 30.218974546821016  Z M 72.05733002481372 26.252614445383273  L 72.061719957462 26.230356532356467  C 72.061719957462 24.133661125199893  70.05113080467913 23.341279421433597  68.13273023750526 23.341279421433597  C 65.96849344204264 23.341279421433597  63.821816377171444 24.093596881750415  63.67255866714004 26.653256879872117  L 65.83679546260271 26.653256879872117  C 65.93337398085805 25.575973889358266  66.78502091456875 25.072945054944654  68.00103225806532 25.072945054944654  C 68.879018787664 25.072945054944654  70.02918114143944 25.286621020005555  70.02918114143944 26.40841983657407  C 70.02918114143944 27.699378792147797  68.64196242467204 27.525767070536403  67.08792626728189 27.815119939889087  C 65.26610421836324 28.024344322343836  63.30819425735632 28.429438339438832  63.30819425735632 30.931227763689378  C 63.30819425735632 32.876569362261336  64.90612974122581 33.8381112050339  66.66649273307371 33.8381112050339  C 67.90763843191178 33.87351450769199  69.11785400327574 33.442246483208834  70.06430060262414 32.6272807363581  C 70.23550797589513 33.51759725744304  70.863268344559 33.8381112050339  71.73686494150928 33.8381112050339  C 72.20061512924946 33.81473942983783  72.65947226153258 33.730955311464044  73.1021339950372 33.58882257913069  L 73.1021339950372 32.08863924110119  C 72.92638277377426 32.115699221962444  72.74868680306531 32.12761270570371  72.57095214462879 32.12425190194452  C 72.17146827366247 32.12425190194452  72.05733002481372 31.915027519488774  72.05733002481372 31.371934441626678  L 72.05733002481372 26.252614445383273  Z M 78.78270684154518 32.12425190194452  C 76.84674654377807 32.12425190194452  76.06972846508296 30.428198929275766  76.06972846508296 28.718791208791515  C 76.06972846508296 26.938158166619644  76.7896774193556 25.09965455057764  78.82221623537828 25.09965455057764  C 80.49039064161713 25.09965455057764  81.5351946118405 26.40841983657407  81.5351946118405 28.603050061050254  C 81.5351946118405 30.334715694562306  80.71866713931252 32.12425190194452  78.78270684154518 32.12425190194452  Z M 83 19.84233549356614  L 83.62480255228547 19.846787076171324  L 81.46056575682286 19.846787076171324  L 81.46056575682286 24.926042828966217  L 81.42105636299186 24.926042828966217  C 80.75817653314351 23.830953508030717  79.39290747961758 23.36798891706559  78.15933640552981 23.36798891706559  C 76.0126593406585 23.36798891706559  73.90988160226863 24.943849159387867  73.90988160226863 28.545179487179098  C 73.90988160226863 31.527739832816422  75.41123856788278 33.855917535455546  78.50175115207384 33.855917535455546  C 79.73532222616171 33.855917535455546  80.96889330024749 33.37514661406979  81.5395845444869 32.23999304968578  L 81.57909393831994 32.23999304968578  L 81.57909393831994 33.5754678313142  L 83 33.5754678313142  L 83 19.84233549356614  Z M 92.02274370790417 30.24123245984785  L 92.03152357320084 30.236780877242694  C 92.03152357320084 31.621223067530906  90.55211627082633 32.12425190194452  89.60389081885813 32.12425190194452  C 88.84443247075444 32.12425190194452  87.61086139666861 31.834899032591807  87.61086139666861 30.855550859396573  C 87.61086139666861 29.70259096459091  88.444948599788 29.35536752136707  89.36683445586618 29.1995621301773  C 90.28872031194629 29.043756738987554  91.3598638780577 29.043756738987554  92.02274370790417 28.603050061050254  L 92.02274370790417 30.24123245984785  Z M 94.18698050336678 26.252614445383273  L 94.19576036866351 26.230356532356467  C 94.19576036866351 24.133661125199893  92.18517121588053 23.341279421433597  90.2667706487066 23.341279421433597  C 88.10253385324398 23.341279421433597  85.95585678837278 24.093596881750415  85.80659907834143 26.653256879872117  L 87.97083587380405 26.653256879872117  C 88.06741439205939 25.575973889358266  88.91906132577009 25.072945054944654  90.13507266926655 25.072945054944654  C 91.01305919886534 25.072945054944654  92.16322155264083 25.286621020005555  92.16322155264083 26.40841983657407  C 92.16322155264083 27.699378792147797  90.77600283587327 27.525767070536403  89.22196667848311 27.815119939889087  C 87.40014462956464 28.024344322343836  85.44223466855766 28.429438339438832  85.44223466855766 30.931227763689378  C 85.44223466855766 32.876569362261336  87.04017015242931 33.8381112050339  88.80053314427516 33.8381112050339  C 90.04161370219299 33.87309173956152  91.2516844200735 33.44187533453936  92.19834101382554 32.6272807363581  C 92.36954838709659 33.51759725744304  92.99730875576023 33.8381112050339  93.86651542006439 33.8381112050339  C 94.33026006923347 33.814690348125254  94.78911104725921 33.73090735347614  95.23178447359027 33.58882257913069  L 95.23178447359027 32.08863924110119  C 95.05603097870056 32.11567802107709  94.8783367828895 32.127591385820836  94.70060262318373 32.12425190194452  C 94.30111875221542 32.12425190194452  94.18698050336678 31.915027519488774  94.18698050336678 31.371934441626678  L 94.18698050336678 26.252614445383273  Z " fill-rule="nonzero" fill="#000000" stroke="none" transform="matrix(1 0 0 1 262 20 )" />
  </g>
</svg>