<?xml version="1.0" encoding="utf-8"?>
<svg version="1.1" xmlns:xlink="http://www.w3.org/1999/xlink" width="12px" height="12px" xmlns="http://www.w3.org/2000/svg">
  <g transform="matrix(1 0 0 1 -1359 -163 )">
    <path d="M 3 3  C 3 4.6574999999998  4.342500000000086 6  6 6  C 7.657499999999914 6  9 4.6574999999998  9 3  C 9 1.3424999999999727  7.657499999999914 0  6 0  C 4.342500000000086 0  3 1.3424999999999727  3 3  Z M 12 10.5  C 12 8.50500000000011  8.002500000000055 7.5  6 7.5  C 3.9974999999999454 7.5  0 8.50500000000011  0 10.5  L 0 12  L 12 12  L 12 10.5  Z " fill-rule="nonzero" fill="#2b4380" stroke="none" transform="matrix(1 0 0 1 1359 163 )" />
  </g>
</svg>