<?xml version="1.0" encoding="utf-8"?>
<svg version="1.1" xmlns:xlink="http://www.w3.org/1999/xlink" width="12px" height="12px" xmlns="http://www.w3.org/2000/svg">
  <defs>
    <mask fill="white" id="clip2">
      <path d="M 6.446666666666715 6.6666666666667425  L 4.7266666666664605 8.393333333333317  L 5.66666666666697 9.333333333333371  L 9 6  L 5.66666666666697 2.6666666666666288  L 4.7266666666664605 3.6066666666666833  L 6.446666666666715 5.3333333333332575  L 0 5.3333333333332575  L 0 6.6666666666667425  L 6.446666666666715 6.6666666666667425  Z M 12 1.3333333333333712  C 12 0.6000000000000227  11.400000000000091 0  10.666666666666515 0  L 1.333333333333485 0  C 0.5933333333332484 0  0 0.6000000000000227  0 1.3333333333333712  L 0 4  L 1.333333333333485 4  L 1.333333333333485 1.3333333333333712  L 10.666666666666515 1.3333333333333712  L 10.666666666666515 10.666666666666629  L 1.333333333333485 10.666666666666629  L 1.333333333333485 8  L 0 8  L 0 10.666666666666629  C 0 11.399999999999977  0.5933333333332484 12  1.333333333333485 12  L 10.666666666666515 12  C 11.400000000000091 12  12 11.399999999999977  12 10.666666666666629  L 12 1.3333333333333712  Z " fill-rule="evenodd" />
    </mask>
  </defs>
  <g transform="matrix(1 0 0 1 -1359 -230 )">
    <path d="M 6.446666666666715 6.6666666666667425  L 4.7266666666664605 8.393333333333317  L 5.66666666666697 9.333333333333371  L 9 6  L 5.66666666666697 2.6666666666666288  L 4.7266666666664605 3.6066666666666833  L 6.446666666666715 5.3333333333332575  L 0 5.3333333333332575  L 0 6.6666666666667425  L 6.446666666666715 6.6666666666667425  Z M 12 1.3333333333333712  C 12 0.6000000000000227  11.400000000000091 0  10.666666666666515 0  L 1.333333333333485 0  C 0.5933333333332484 0  0 0.6000000000000227  0 1.3333333333333712  L 0 4  L 1.333333333333485 4  L 1.333333333333485 1.3333333333333712  L 10.666666666666515 1.3333333333333712  L 10.666666666666515 10.666666666666629  L 1.333333333333485 10.666666666666629  L 1.333333333333485 8  L 0 8  L 0 10.666666666666629  C 0 11.399999999999977  0.5933333333332484 12  1.333333333333485 12  L 10.666666666666515 12  C 11.400000000000091 12  12 11.399999999999977  12 10.666666666666629  L 12 1.3333333333333712  Z " fill-rule="nonzero" fill="#2b4380" stroke="none" transform="matrix(1 0 0 1 1359 230 )" />
    <path d="M 6.446666666666715 6.6666666666667425  L 4.7266666666664605 8.393333333333317  L 5.66666666666697 9.333333333333371  L 9 6  L 5.66666666666697 2.6666666666666288  L 4.7266666666664605 3.6066666666666833  L 6.446666666666715 5.3333333333332575  L 0 5.3333333333332575  L 0 6.6666666666667425  L 6.446666666666715 6.6666666666667425  Z " stroke-width="2" stroke="#797979" fill="none" transform="matrix(1 0 0 1 1359 230 )" mask="url(#clip2)" />
    <path d="M 12 1.3333333333333712  C 12 0.6000000000000227  11.400000000000091 0  10.666666666666515 0  L 1.333333333333485 0  C 0.5933333333332484 0  0 0.6000000000000227  0 1.3333333333333712  L 0 4  L 1.333333333333485 4  L 1.333333333333485 1.3333333333333712  L 10.666666666666515 1.3333333333333712  L 10.666666666666515 10.666666666666629  L 1.333333333333485 10.666666666666629  L 1.333333333333485 8  L 0 8  L 0 10.666666666666629  C 0 11.399999999999977  0.5933333333332484 12  1.333333333333485 12  L 10.666666666666515 12  C 11.400000000000091 12  12 11.399999999999977  12 10.666666666666629  L 12 1.3333333333333712  Z " stroke-width="2" stroke="#797979" fill="none" transform="matrix(1 0 0 1 1359 230 )" mask="url(#clip2)" />
  </g>
</svg>