<?xml version="1.0" encoding="utf-8"?>
<svg version="1.1" xmlns:xlink="http://www.w3.org/1999/xlink" width="34px" height="28px" xmlns="http://www.w3.org/2000/svg">
  <g transform="matrix(1 0 0 1 -323 -198 )">
    <path d="M 31.262999999999977 7.778823529411767  L 31.24599999999998 7.795882352941192  L 29.154999999999973 10.95176470588234  C 31.203330015976576 15.051244001834618  31.062826318253656 19.908985875608266  28.781000000000006 23.882352941176464  L 5.218999999999994 23.882352941176464  C 4.028341123865687 21.809661850519234  3.4015949387503497 19.459303961388088  3.4015949387503497 17.066910861271197  C 3.4015949387503497 9.529848392992136  9.490522341051587 3.4198520377417765  17.001594938750372 3.4198520377417765  C 19.113797121651828 3.4198520377417765  21.19696759489335 3.9135321699857  23.086000000000013 4.861764705882365  L 26.230999999999995 2.7635294117646936  C 23.492507257972704 1.0014265871245698  20.3076665528572 0.06478551685310663  17.05451854728591 0.06478551685310663  C 7.6656778001624275 0.06478551685310663  0.05451854728590888 7.702280960916028  0.05451854728590888 17.123609046264875  C 0.05451854728590888 20.09272544831387  0.8267981085161864 23.010427729112166  2.295000000000016 25.588235294117652  C 2.8986778044672405 26.637504887441708  4.011622396669338 27.2868046616  5.218999999999994 27  L 28.76400000000001 27  C 29.98352817868829 27.29897602163561  31.112240716040333 26.6480460692988  31.72199999999998 25.588235294117652  C 34.91569447219666 20.03673118640711  34.73839048026264 13.15725449821764  31.262999999999977 7.778823529411767  Z M 13.605825368186402 17.05029411764707  C 13.605825368186402 17.95580802292625  13.964558053697715 18.824178887396954  14.603000000000009 19.464117647058828  C 15.240732074283699 20.10476873504382  16.106108556463198 20.464742710124398  17.008500000000026 20.464742710124398  C 17.910891443536855 20.464742710124398  18.776267925716297 20.104768735043848  19.413999999999987 19.464117647058828  L 29.036 4.981176470588224  L 14.603000000000009 14.636470588235285  C 13.964558053697715 15.276409347897157  13.605825368186402 16.14478021236789  13.605825368186402 17.05029411764707  Z " fill-rule="nonzero" fill="#000000" stroke="none" transform="matrix(1 0 0 1 323 198 )" />
  </g>
</svg>