<?xml version="1.0" encoding="utf-8"?>
<svg version="1.1" xmlns:xlink="http://www.w3.org/1999/xlink" width="15px" height="15px" xmlns="http://www.w3.org/2000/svg">
  <g transform="matrix(1 0 0 1 -1210 -2181 )">
    <path d="M 13.333333333333371 7.5  L 13.333333333333371 13.333333333333314  L 1.6666666666666288 13.333333333333314  L 1.6666666666666288 1.6666666666666856  L 7.5 1.6666666666666856  L 7.5 0  L 1.6666666666666288 0  C 0.7416666666666742 0  0 0.75  0 1.6666666666666856  L 0 13.333333333333314  C 0 14.25  0.7416666666666742 15  1.6666666666666288 15  L 13.333333333333371 15  C 14.25 15  15 14.25  15 13.333333333333314  L 15 7.5  L 13.333333333333371 7.5  Z M 15 0  L 9.166666666666629 0  L 9.166666666666629 1.6666666666666856  L 12.158333333333303 1.6666666666666856  L 3.966666666666697 9.858333333333348  L 5.1416666666666515 11.03333333333336  L 13.333333333333371 2.84166666666664  L 13.333333333333371 5.833333333333314  L 15 5.833333333333314  L 15 0  Z " fill-rule="nonzero" fill="#2b4380" stroke="none" transform="matrix(1 0 0 1 1210 2181 )" />
  </g>
</svg>