<?xml version="1.0" encoding="utf-8"?>
<svg version="1.1" xmlns:xlink="http://www.w3.org/1999/xlink" width="20px" height="20px" xmlns="http://www.w3.org/2000/svg">
  <g transform="matrix(1 0 0 1 -904 -920 )">
    <path d="M 20 10  C 20 4.48  15.52 0  10 0  C 4.48 0  0 4.48  0 10  C 0 15.52  4.48 20  10 20  C 15.52 20  20 15.52  20 10  Z M 11 15  L 11 17  L 9 17  L 9 15  L 11 15  Z M 14 7  C 14 7.880000000000001  13.64 8.68  13.07 9.25  L 12.170000000000002 10.169999999999998  C 11.45 10.9  11 11.5  11 13  L 9 13  L 9 12.5  C 9 11.400000000000002  9.45 10.4  10.169999999999998 9.67  L 11.41 8.41  C 11.78 8.05  12 7.550000000000001  12 7  C 12 5.9  11.099999999999998 5  10 5  C 8.9 5  8 5.9  8 7  L 6 7  C 6 4.79  7.789999999999999 3  10 3  C 12.21 3  14 4.79  14 7  Z " fill-rule="nonzero" fill="#333333" stroke="none" transform="matrix(1 0 0 1 904 920 )" />
  </g>
</svg>