<?xml version="1.0" encoding="utf-8"?>
<svg version="1.1" xmlns:xlink="http://www.w3.org/1999/xlink" width="24px" height="24px" xmlns="http://www.w3.org/2000/svg">
  <g transform="matrix(1 0 0 1 -1293 -904 )">
    <path d="M 23.111111111111114 12  C 23.111111111111114 5.866666666666667  18.133333333333333 0.8888888888888891  12 0.8888888888888891  C 5.866666666666667 0.8888888888888891  0.8888888888888891 5.866666666666667  0.8888888888888891 12  C 0.8888888888888891 18.133333333333333  5.866666666666667 23.111111111111114  12 23.111111111111114  C 18.133333333333333 23.111111111111114  23.111111111111114 18.133333333333333  23.111111111111114 12  Z M 13.11111111111111 17.555555555555557  L 13.11111111111111 19.77777777777778  L 10.888888888888891 19.77777777777778  L 10.888888888888891 17.555555555555557  L 13.11111111111111 17.555555555555557  Z M 16.444444444444446 8.666666666666666  C 16.444444444444446 9.644444444444446  16.044444444444448 10.533333333333333  15.411111111111111 11.166666666666668  L 14.411111111111111 12.18888888888889  C 13.61111111111111 13  13.11111111111111 13.666666666666666  13.11111111111111 15.333333333333332  L 10.888888888888891 15.333333333333332  L 10.888888888888891 14.777777777777779  C 10.888888888888891 13.555555555555557  11.388888888888888 12.444444444444446  12.18888888888889 11.633333333333333  L 13.566666666666666 10.233333333333334  C 13.977777777777778 9.833333333333336  14.222222222222225 9.277777777777779  14.222222222222225 8.666666666666666  C 14.222222222222225 7.4444444444444455  13.222222222222221 6.444444444444445  12 6.444444444444445  C 10.777777777777779 6.444444444444445  9.777777777777779 7.4444444444444455  9.777777777777779 8.666666666666666  L 7.555555555555555 8.666666666666666  C 7.555555555555555 6.211111111111111  9.544444444444444 4.222222222222222  12 4.222222222222222  C 14.45555555555556 4.222222222222222  16.444444444444446 6.211111111111111  16.444444444444446 8.666666666666666  Z " fill-rule="nonzero" fill="#2b4380" stroke="none" transform="matrix(1 0 0 1 1293 904 )" />
  </g>
</svg>