<?xml version="1.0" encoding="utf-8"?>
<svg version="1.1" xmlns:xlink="http://www.w3.org/1999/xlink" width="24px" height="24px" xmlns="http://www.w3.org/2000/svg">
  <g transform="matrix(1 0 0 1 -1107 -1386 )">
    <path d="M 24 12  C 24 5.376000000000005  18.62400000000008 0  12 0  C 5.3759999999999195 0  0 5.376000000000005  0 12  C 0 18.623999999999995  5.3759999999999195 24  12 24  C 18.62400000000008 24  24 18.623999999999995  24 12  Z M 13.199999999999932 15.599999999999966  L 13.199999999999932 18  L 10.800000000000068 18  L 10.800000000000068 15.599999999999966  L 13.199999999999932 15.599999999999966  Z M 13.199999999999932 6  L 13.199999999999932 13.200000000000017  L 10.800000000000068 13.200000000000017  L 10.800000000000068 6  L 13.199999999999932 6  Z " fill-rule="nonzero" fill="#d3080c" stroke="none" transform="matrix(1 0 0 1 1107 1386 )" />
  </g>
</svg>