<?xml version="1.0" encoding="utf-8"?>
<svg version="1.1" xmlns:xlink="http://www.w3.org/1999/xlink" width="71px" height="35px" xmlns="http://www.w3.org/2000/svg">
  <g transform="matrix(1 0 0 1 -31 -20 )">
    <path d="M 0 33  L 0 0  L 17 0  L 17 33  L 0 33  Z M 53 33  L 53 0  L 69 0  L 69 33  L 53 33  Z M 32.54012150784456 6.94164910303391  L 32.504294233957765 7.039583920353522  L 34.859937492027484 2.271938949939141  L 37.197667113152704 6.865972198741105  C 37.4887637134843 7.351194702733039  37.72611940298441 7.311130459284584  38.19187396351572 7.0796481638020055  L 40.202679710422586 6.091396825396458  L 38.89498421354716 12.506127359819743  C 38.62180125016002 13.765925237156353  39.3428251371339 14.135406593407026  40.1265467534123 13.280702733164418  L 42.99272866437127 10.235820231050752  L 43.75405823446863 11.958582699351496  C 44.009327560913306 12.479417864186757  44.39447075519752 12.403740959894975  44.905009408086784 12.31025772518052  L 47.865237912998595 11.691487743026613  L 46.871031062635694 15.408559218559134  L 46.871031062635694 15.488687705457096  C 46.7545924225019 15.973910209449059  46.52171514223827 16.37900422654303  47.068081069014426 16.614938104630767  L 48.12050723944327 17.13577326946603  L 41.99404340477179 22.268448013524903  C 41.37154452098531 22.905024326101454  41.586508164306395 23.100893960739683  41.81938544457205 23.817598760214196  L 42.38366500829267 25.54036122851494  L 36.691606869498 24.516497229266065  C 35.98849661946659 24.342885507654643  35.50035001275637 24.342885507654643  35.482436375813904 24.903784915938388  L 35.71531365607959 31.394192354653484  L 34.00456132797535 31.394192354653484  L 34.23743860824101 24.921591246360038  C 34.23743860824101 24.28501493378451  33.74929200153068 24.30282126420616  32.59834082791251 24.538755142293894  L 27.318296338817788 25.544812811120096  L 27.999014542672313 23.82205034281938  C 28.231891822935836 23.163216117215995  28.294589552238364 22.71805785667354  27.76613726240666 22.27289959613006  L 21.54562683378029 17.21145017375781  L 22.696578007398557 16.51255170470597  C 23.027980290853538 16.258811496196586  23.045893927795987 15.991716539870708  22.87123596759828 15.426365548980783  L 21.702371157035657 11.664778247393627  L 24.702905345068828 12.301354559970179  C 25.540367872178493 12.497224194608407  25.77324515244213 12.301354559970179  25.988208795765345 11.8561962994267  L 26.825671322872992 10.151240161547634  L 29.790378237019368 13.445411289565499  C 30.314352117616494 14.064181271719377  31.05776805077143 13.659087254625405  30.82489077050576 12.768770733540464  L 29.40075663349846 5.8153987038602395  L 31.60413397754759 7.075196581196849  C 31.953449897947024 7.288872546256755  32.32515786452336 7.346743120127883  32.54012150784456 6.94164910303391  Z " fill-rule="nonzero" fill="#ff0000" stroke="none" transform="matrix(1 0 0 1 31 20 )" />
  </g>
</svg>