<?xml version="1.0" encoding="utf-8"?>
<svg version="1.1" xmlns:xlink="http://www.w3.org/1999/xlink" width="109px" height="34px" xmlns="http://www.w3.org/2000/svg">
  <g transform="matrix(1 0 0 1 -128 -20 )">
    <path d="M 12.890751437368664 6.977261763877209  L 12.890751437368664 14.215535080303994  L 11.34860316792657 14.215535080303994  L 10.983122942220376 12.599610594533203  C 9.690570924481051 14.064181271719377  8.518359956669002 14.544952193106184  6.838042333605557 14.544952193106184  C 2.7152471046085793 14.544952193106184  0.24602704313326743 11.273038978116148  0.24602704313326743 7.346743120127883  C 0.24602704313326743 3.4204472621396462  2.7152471046085793 0.14408246454445361  6.838042333605557 0.14408246454445361  C 9.846568581794259 0.14408246454445361  12.369273554349377 1.742200619892543  12.734753780055456 4.840502113271185  L 10.385874768505488 4.840502113271185  C 10.154106820498697 3.033159575467323  8.576301943670643 2.1072303935380603  6.820214029913699 2.1072303935380603  C 3.869629768726668 2.1072303935380603  2.639476813912978 4.706954635108218  2.639476813912978 7.342291537522726  C 2.639476813912978 9.977628439936211  3.8740868446507477 12.577352681506397  6.820214029913699 12.577352681506397  C 9.284977015465074 12.612965342349696  10.635471020208143 11.135039917348024  10.675584703517956 8.802410632102749  L 7.016325370536691 8.802410632102749  L 7.016325370536691 6.977261763877209  L 12.890751437368664 6.977261763877209  Z M 22.602719874111102 9.22976256222455  C 22.602719874111102 10.952525030525294  21.73359006907961 12.75096440311782  19.76801958692957 12.75096440311782  C 17.80244910477964 12.75096440311782  16.933319299748064 10.970331360946943  16.933319299748064 9.22976256222455  C 16.933319299748064 7.489193763501163  17.80244910477964 5.726367051751936  19.76801958692957 5.726367051751936  C 21.73359006907961 5.726367051751936  22.602719874111102 7.507000093922812  22.602719874111102 9.22976256222455  Z M 19.76801958692957 14.487081619235028  L 19.76801958692957 14.482630036629871  C 22.968200099817295 14.482630036629871  24.800058304267935 12.287999812153686  24.800058304267935 9.22976256222455  C 24.800058304267935 6.1715253122944205  22.9637430238933 3.9947014182398846  19.76801958692957 3.9947014182398846  C 16.57229614996595 3.9947014182398846  14.735980869589326 6.18933164271607  14.735980869589326 9.22976256222455  C 14.735980869589326 12.270193481732036  16.567839074041984 14.487081619235028  19.76801958692957 14.487081619235028  Z M 29.252677151587164 14.211083497698837  L 25.63798857783766 4.266247957170918  L 28.026981272695423 4.266247957170918  L 30.54077209340465 11.90516370808652  L 30.58088577671242 11.90516370808652  L 33.00999215488008 4.261796374565762  L 35.28310087573243 4.261796374565762  L 31.717440137138652 14.211083497698837  L 29.252677151587164 14.211083497698837  Z M 43.47074934672665 8.36170395416542  L 38.345112034998806 8.36170395416542  C 38.34494864013604 8.349812877237639  38.344866939819894 8.337920820504365  38.344866939819894 8.326028623792496  C 38.344866939819894 6.890240571407816  39.51023944322614 5.726304382222338  40.94779927899259 5.726304382222338  C 40.95382379974319 5.726304382222338  40.9598483023413 5.726325272191559  40.96587267786549 5.726367051751936  C 42.45007896030381 5.726367051751936  43.39497905603102 6.977261763877209  43.47074934672665 8.36170395416542  Z M 38.362940338692766 9.804016718324789  L 45.6680877768855 9.808468300929974  C 46.03356800258956 6.825907955292621  44.10811120374942 3.9947014182398846  40.96587267786549 3.9947014182398846  C 37.99746011298657 3.9947014182398846  36.14777360484209 6.420813938198648  36.14777360484209 9.2475688926462  C 36.14777360484209 12.305806142575335  37.903861518599115 14.482630036629871  41.02381466486713 14.482630036629871  C 43.203324791331994 14.482630036629871  45.03518299578468 13.271799567953082  45.534375499188116 11.094975673898546  L 43.46629227080268 11.094975673898546  C 43.078526665480666 12.19451657743923  42.311909606684594 12.75096440311782  41.037185892637126 12.75096440311782  C 39.20532768818447 12.75096440311782  38.362940338692766 11.36652221282958  38.362940338692766 9.804016718324789  Z M 47.34394832402285 14.215535080303994  L 47.34394832402285 4.266247957170918  L 49.407574476484314 4.266247957170918  L 49.407574476484314 6.18933164271607  L 49.44768815979424 6.18933164271607  C 49.86806521241422 4.925589252318105  51.026103454435884 4.05237454045735  52.358158737669356 3.9947014182398846  C 52.635599401045795 3.9919150888115382  52.912819663047685 4.011266818204831  53.18717485939305 4.052571992110018  L 53.18717485939305 6.1715253122944205  C 52.874478319148466 6.119844911430192  52.55893316477977 6.087140017876521  52.24227476366596 6.0735904949747805  C 50.740240177533536 6.0735904949747805  49.545743830105664 7.28442096365157  49.545743830105664 9.479051188127755  L 49.545743830105664 14.215535080303994  L 47.34394832402285 14.215535080303994  Z M 54.140989106966174 4.266247957170918  L 54.12761787919629 4.266247957170918  L 56.209072335349624 4.266247957170918  L 56.209072335349624 5.730818634357121  L 56.2491860186594 5.770882877805576  C 56.89181305515149 4.659073261485418  58.08383359389487 3.978758186635673  59.36913916492954 3.990249835634728  C 61.526363911776485 3.990249835634728  62.894686220211526 5.143209730440361  62.894686220211526 7.377904198366053  L 62.894686220211526 14.215535080303994  L 60.697347790054806 14.215535080303994  L 60.697347790054806 7.961061519676605  C 60.65723410674499 6.403007607776971  60.042157629338156 5.735270216962277  58.74960561159872 5.735270216962277  C 57.28322763285215 5.735270216962277  56.33832753712505 6.888230111768934  56.33832753712505 8.352800788955108  L 56.33832753712505 14.215535080303994  L 54.140989106966174 14.215535080303994  L 54.140989106966174 4.266247957170918  Z M 65.18562324475783 4.266247957170918  L 65.19008032068183 4.266247957170918  L 67.27153477683527 4.266247957170918  L 67.27153477683527 5.65069014745913  L 67.32947676383691 5.65069014745913  C 67.95676557696606 4.567124744958619  69.14011666225935 3.9271479591051275  70.39148792310527 3.9947014182398846  C 71.60381257422716 3.9947014182398846  72.74482401057531 4.515536583075146  73.186074526977 5.65069014745913  C 73.86425405502308 4.591424246528732  75.04755320917786 3.9633603075182577  76.30602767324513 3.9947014182398846  C 78.40531043309244 3.9947014182398846  79.6399204638301 4.920630600169147  79.6399204638301 7.342291537522726  L 79.6399204638301 14.215535080303994  L 77.44258203367133 14.215535080303994  L 77.44258203367133 8.401768197613904  C 77.44258203367133 6.821456372687464  77.34452636336181 5.730818634357121  75.63300920883654 5.730818634357121  C 74.14880292639617 5.730818634357121  73.5114410693734 6.714618390156488  73.5114410693734 8.401768197613904  L 73.5114410693734 14.233341410725643  L 71.31410263921452 14.233341410725643  L 71.31410263921452 7.827514041513666  C 71.31410263921452 6.460878181647104  70.8683950468909 5.730818634357121  69.56247180138143 5.730818634357121  C 68.42591744095535 5.730818634357121  67.38296167491671 6.656747816286355  67.38296167491671 8.308284962900473  L 67.38296167491671 14.215535080303994  L 65.18562324475783 14.215535080303994  L 65.18562324475783 4.266247957170918  Z M 88.7992114860914 8.36170395416542  L 83.67357417436358 8.36170395416542  C 83.67341077950084 8.349812877237639  83.67332907918467 8.337920820503342  83.67332907918467 8.326028623792496  C 83.67332907918467 6.890240571407816  84.83870158259077 5.726304382222338  86.27626141835736 5.726304382222338  C 86.28228593910796 5.726304382222338  86.28831044170602 5.726325272191559  86.29433481723015 5.726367051751936  C 87.77854109966859 5.726367051751936  88.72344119539582 6.977261763877209  88.7992114860914 8.36170395416542  Z M 83.67803125028752 9.804016718324789  L 90.99654991624811 9.808468300929974  C 91.36203014195434 6.825907955292621  89.4365733431141 3.9947014182398846  86.29433481723015 3.9947014182398846  C 83.32592225235123 3.9947014182398846  81.4762357442047 6.420813938198648  81.4762357442047 9.2475688926462  C 81.4762357442047 12.305806142575335  83.22786658203984 14.482630036629871  86.3522768042319 14.482630036629871  C 88.5317869306968 14.482630036629871  90.36364513514945 13.271799567953082  90.86283763855289 11.094975673898546  L 88.78138318239746 11.094975673898546  C 88.39807465299941 12.19451657743923  87.62700051827937 12.75096440311782  86.3522768042319 12.75096440311782  C 84.52041859977925 12.75096440311782  83.67803125028752 11.36652221282958  83.67803125028752 9.804016718324789  Z M 92.67241046338762 14.215535080303994  L 92.67241046338762 4.266247957170918  L 94.75386491954106 4.266247957170918  L 94.75386491954106 5.730818634357121  L 94.79397860285087 5.770882877805576  C 95.43660563934077 4.659073261485418  96.62862617808418 3.978758186635673  97.91393174911889 3.990249835634728  C 100.0711564959679 3.990249835634728  101.43947880440282 5.143209730440361  101.43947880440282 7.377904198366053  L 101.43947880440282 14.215535080303994  L 99.22431207055212 14.215535080303994  L 99.22431207055212 7.961061519676605  C 99.18419838724435 6.403007607776971  98.56912190983547 5.735270216962277  97.27656989209618 5.735270216962277  C 95.81019191334957 5.735270216962277  94.86529181762239 6.888230111768934  94.86529181762239 8.352800788955108  L 94.86529181762239 14.215535080303994  L 92.67241046338762 14.215535080303994  Z M 102.74540204991428 5.899978773363358  L 102.74540204991428 4.266247957170918  L 104.3989772174358 4.266247957170918  L 104.3989772174358 1.2792360289284375  L 106.59631564759457 1.2792360289284375  L 106.59631564759457 4.261796374565762  L 108.57971443343644 4.261796374565762  L 108.57971443343644 5.899978773363358  L 106.59631564759457 5.899978773363358  L 106.59631564759457 11.219619986851171  C 106.59631564759457 12.109936507936084  106.67208593828815 12.586255846717734  107.6570997173252 12.586255846717734  C 107.96827417913391 12.598864846873852  108.27979189373127 12.571939809000213  108.58417150936043 12.506127359819743  L 108.58417150936043 14.202180332487501  C 108.10280730964882 14.237792993331823  107.63927141363331 14.31792148022879  107.1579072139217 14.31792148022879  C 104.86251311345342 14.31792148022879  104.43909090074561 13.42760495914385  104.3989772174358 11.77606781252976  L 104.3989772174358 5.899978773363358  L 102.74540204991428 5.899978773363358  Z M 7.97013961810984 28.47840574809763  C 7.97013961810984 30.201168216399367  7.109923964924177 31.999607588991893  5.135439330928193 31.999607588991893  C 3.1698688487782647 31.999607588991893  2.300739043746688 30.218974546821016  2.300739043746688 28.47840574809763  C 2.300739043746688 26.737836949375236  3.174325924702231 24.975010237626037  5.135439330928193 24.975010237626037  C 7.096552737154269 24.975010237626037  7.97013961810984 26.755643279796885  7.97013961810984 28.47840574809763  Z M 0.10340061358795083 28.473954165492472  C 0.10340061358795083 31.51438508499993  1.9397158939645749 33.731273222503944  5.135439330928193 33.731273222503944  C 8.33561984381592 33.731273222503944  10.163020972344611 31.53664299802776  10.163020972344611 28.47840574809763  C 10.163020972344611 25.420168498168493  8.340076919737868 23.2388930215088  5.135439330928193 23.2388930215088  C 1.9308017421166426 23.2388930215088  0.10340061358795083 25.433523245984986  0.10340061358795083 28.473954165492472  Z M 11.018779549606194 25.14862195923746  L 11.018779549606194 23.510439560439863  L 12.65452641343586 23.510439560439863  L 12.65452641343586 22.68689677843537  C 12.65452641343586 20.145043110735344  13.991649190409051 19.722142763219694  15.408999333999818 19.722142763219694  C 15.926618404757336 19.702044623482806  16.444716655197425 19.746911071254516  16.951147603440006 19.855690241382632  L 16.951147603440006 21.569549544473062  C 16.61794770053541 21.483863723852153  16.274429225763868 21.44490969611732  15.930477217019186 21.453808396731773  C 15.333229043304184 21.453808396731773  14.851864843594742 21.66748436179165  14.851864843594742 22.491027143796146  L 14.851864843594742 23.510439560439863  L 16.723836731355163 23.510439560439863  L 16.723836731355163 25.14862195923746  L 14.851864843594742 25.14862195923746  L 14.851864843594742 33.47753301399456  L 12.65452641343586 33.47753301399456  L 12.65452641343586 25.14862195923746  L 11.018779549606194 25.14862195923746  Z M 33.018906306726024 24.089145299145258  L 33.02782045857194 24.089145299145258  C 32.62222654955798 22.508833474217795  31.601556163135257 21.355873579412133  29.59587199767742 21.355873579412133  C 26.645287736490502 21.355873579412133  25.415134781676784 23.95559782098232  25.415134781676784 26.590934723395804  C 25.415134781676784 29.226271625810284  26.64974481241447 31.82599586738047  29.59587199767742 31.82599586738047  C 31.735268440832503 31.82599586738047  32.91193648456854 30.227877712031358  33.10359074926754 28.224665539588244  L 35.443555608969604 28.224665539588244  C 35.25190134427058 31.51438508499993  32.92085063641446 33.789143796374105  29.58695784582949 33.789143796374105  C 25.46416261683251 33.789143796374105  22.99494255535518 30.51723058138404  22.99494255535518 26.590934723395804  C 22.99494255535518 22.664638865408563  25.46416261683251 19.392725650417503  29.58695784582949 19.392725650417503  C 32.70691099209961 19.392725650417503  35.136017370265165 21.124391283929583  35.42572730527573 24.089145299145258  L 33.018906306726024 24.089145299145258  Z M 43.47966349857256 28.48285733070381  L 43.49303472634256 30.116588146896248  C 43.49303472634256 31.50103033718446  41.99100014021013 32.004059171598044  41.02381466486713 32.004059171598044  C 40.25274053014709 32.004059171598044  39.00030219571545 31.714706302244338  39.00030219571545 30.735358129050127  C 39.00030219571545 29.582398234244465  39.84714662113112 29.235174791020626  40.78313256501238 29.079369399830853  C 41.71911850889356 28.923564008641108  42.80664503416406 28.923564008641108  43.47966349857256 28.48285733070381  Z M 45.68591608057733 31.247290128675075  L 45.69037315650132 26.11016380201002  C 45.69037315650132 24.013468394853447  43.649032383655765 23.225538273692308  41.679004825583775 23.225538273692308  C 39.48166639542504 23.225538273692308  37.30215626896015 23.977855734009125  37.150615687570934 26.537515732130828  L 39.34795411772765 26.537515732130828  C 39.454923939887124 25.464684324223157  40.34633912453455 24.975010237626037  41.56312085158038 24.975010237626037  C 42.45453603622789 24.975010237626037  43.62674700403983 25.188686202685915  43.62674700403983 26.31048501925443  C 43.62674700403983 27.601443974828186  42.218311012295004 27.427832253216764  40.64050613546908 27.717185122569475  C 38.79081962732255 27.92640950502522  36.80742084148068 28.331503522119192  36.80742084148068 30.83329294636974  C 36.80742084148068 32.77863454494272  38.42533940161837 33.74017638771528  40.217083922761276 33.74017638771528  C 41.47714659730181 33.7751569222429  42.705725141565495 33.34394051721975  43.66686068734964 32.52934591903849  C 43.84068664835681 33.419662440124426  44.478048505379576 33.74017638771528  45.36054953818106 33.74017638771528  C 45.831375856542564 33.71665760998343  46.2972324316508 33.632876854515246  46.74670015030998 33.49088776181105  L 46.74670015030998 31.963994928148566  C 46.56825853552678 31.991033708125485  46.38784653712776 32.002947072869205  46.20739396359673 31.999607588991893  C 45.80180005458277 31.999607588991893  45.68591608057733 31.790383206537143  45.68591608057733 31.247290128675075  Z M 48.057080471741244 33.47753301399456  L 48.057080471741244 23.510439560439863  L 50.15190615566456 23.510439560439863  L 50.15190615566456 24.975010237626037  L 50.192019838974375 25.01507448107452  C 50.83464687546643 23.903264864754334  52.02666741420981 23.222949789903566  53.311972985244495 23.23444143890262  C 55.46919773209345 23.23444143890262  56.837520040528496 24.387401333709306  56.837520040528496 26.622095801633947  L 56.837520040528496 33.47753301399456  L 54.60898207890779 33.47753301399456  L 54.60898207890779 27.209704705550706  C 54.568868395597974 25.651650793651072  53.95379191819114 24.98391340283635  52.6612399004498 24.98391340283635  C 51.19486192170322 24.98391340283635  50.249961825976015 26.136873297643007  50.249961825976015 27.601443974828186  L 50.249961825976015 33.47753301399456  L 48.057080471741244 33.47753301399456  Z M 65.25693645952947 28.48285733070381  L 65.26585061137746 30.116588146896248  C 65.26585061137746 31.50103033718446  63.76381602524512 32.004059171598044  62.80108762582407 32.004059171598044  C 62.03001349110403 32.004059171598044  60.777575156672384 31.714706302244338  60.777575156672384 30.735358129050127  C 60.777575156672384 29.582398234244465  61.624419582088024 29.235174791020626  62.560405525969315 29.079369399830853  C 63.496391469850494 28.923564008641108  64.58391799512088 28.923564008641108  65.25693645952947 28.48285733070381  Z M 67.44090366191836 31.247290128675075  L 67.46318904153429 26.11016380201002  C 67.46318904153429 24.013468394853447  65.42184826869061 23.225538273692308  63.451820710616744 23.225538273692308  C 61.25448228045988 23.225538273692308  59.07942922991696 23.977855734009125  58.92343157260376 26.537515732130828  L 61.12077000276265 26.537515732130828  C 61.21882567307406 25.460232741616977  62.083498402181675 24.961655489809544  63.31810843292135 24.961655489809544  C 64.20952361756878 24.961655489809544  65.38173458538085 25.175331454869422  65.38173458538085 26.297130271437936  C 65.38173458538085 27.588089227012688  63.973298593636 27.41447750540027  62.39549371681011 27.703830374752982  C 60.54580720866357 27.913054757208727  58.562408422821676 28.3181487743027  58.562408422821676 30.819938198553245  C 58.562408422821676 32.765279797126226  60.1803269829594 33.72682163989879  61.97207150410225 33.72682163989879  C 63.232134178642816 33.76180217442641  64.4607127229065 33.33058576940425  65.42184826869061 32.515991171222  C 65.5956742296978 33.406307692307934  66.23303608672046 33.72682163989879  67.11553711952195 33.72682163989879  C 67.58636343788356 33.703302862166936  68.05222001299177 33.61952210669875  68.50168773165097 33.47753301399456  L 68.50168773165097 31.963994928148566  C 68.32324381617747 31.991012566446756  68.14283361227257 32.002925812692354  67.96238154493773 31.999607588991893  C 67.55678763592374 31.999607588991893  67.44090366191836 31.790383206537143  67.44090366191836 31.247290128675075  Z M 74.30034350778743 31.986252841176395  C 72.33477302563733 31.986252841176395  71.54587058722336 30.30800619892932  71.54587058722336 28.580792148022425  C 71.54587058722336 26.80015910585155  72.27683103863575 24.961655489809544  74.34045719109724 24.961655489809544  C 76.03414604192852 24.961655489809544  77.09493011165915 26.27042077580495  77.09493011165915 28.46505100028213  C 77.09493011165915 30.196716633793187  76.26591398993736 31.986252841176395  74.30034350778743 31.986252841176395  Z M 79 33.450823518361574  L 79 19.722142763219694  L 77.02361689688746 19.722142763219694  L 77.02361689688746 24.80139851601359  L 76.9835032135777 24.80139851601359  C 76.31048474916906 23.70630919507809  74.91987706111826 23.243344604113958  73.66743872668661 23.243344604113958  C 71.48792860022172 23.243344604113958  69.35298923298859 24.81920484643527  69.35298923298859 28.420535174227496  C 69.35298923298859 31.40309551986482  70.87285212281483 33.731273222503944  74.01509064869879 33.731273222503944  C 75.26752898313043 33.731273222503944  76.51996731756196 33.25050230111816  77.09938718758315 32.11534873673318  L 77.13950087089091 32.11534873673318  L 77.13950087089091 33.450823518361574  L 79 33.450823518361574  Z M 87.74288449228277 28.48285733070381  L 87.75625572005265 30.116588146896248  C 87.75625572005265 31.50103033718446  86.25422113392034 32.004059171598044  85.28703565857734 32.004059171598044  C 84.5159615238573 32.004059171598044  83.26352318942565 31.714706302244338  83.26352318942565 30.735358129050127  C 83.26352318942565 29.582398234244465  84.11036761484127 29.235174791020626  85.04635355872256 29.079369399830853  C 85.98233950260175 28.923564008641108  87.06986602787424 28.923564008641108  87.74288449228277 28.48285733070381  Z M 89.93130877059355 31.247290128675075  L 89.95359415021153 26.11016380201002  C 89.95359415021153 24.013468394853447  87.91225337736597 23.225538273692308  85.94222581929398 23.225538273692308  C 83.7448873891351 23.225538273692308  81.56537726267032 23.977855734009125  81.413836681281 26.537515732130828  L 83.61117511143783 26.537515732130828  C 83.70923078174928 25.460232741616977  84.57390351085894 24.961655489809544  85.8085135415966 24.961655489809544  C 86.69992872624414 24.961655489809544  87.87213969405616 25.175331454869422  87.87213969405616 26.297130271437936  C 87.87213969405616 27.588089227012688  86.46370370231335 27.41447750540027  84.8858988254853 27.703830374752982  C 83.03621231734081 27.913054757208727  81.0528135314969 28.3181487743027  81.0528135314969 30.819938198553245  C 81.0528135314969 32.765279797126226  82.6707320916347 33.72682163989879  84.4624766127775 33.72682163989879  C 85.72260542455996 33.762224942556884  86.951331037817 33.33095691807273  87.91225337736597 32.515991171222  C 88.086079338373 33.406307692307934  88.72344119539582 33.72682163989879  89.60594222819725 33.72682163989879  C 90.07677415650573 33.70335178221126  90.54263694937043 33.61956990852801  90.99209284032622 33.47753301399456  L 90.99209284032622 31.963994928148566  C 90.81365122554303 31.991033708125485  90.63323922714596 32.002947072869205  90.45278665361292 31.999607588991893  C 90.04719274459899 31.999607588991893  89.93130877059355 31.790383206537143  89.93130877059355 31.247290128675075  Z " fill-rule="nonzero" fill="#000000" stroke="none" transform="matrix(1 0 0 1 128 20 )" />
  </g>
</svg>