<?xml version="1.0" encoding="UTF-8"?>
<svg width="353px" height="70px" viewBox="0 0 353 70" version="1.1" xmlns="http://www.w3.org/2000/svg" xmlns:xlink="http://www.w3.org/1999/xlink">
    <title>GSVME Brand / Logos / EN / Color@1x</title>
    <g id="GSVME-Brand-/-Logos-/-EN-/-Color" stroke="none" stroke-width="1" fill="none" fill-rule="evenodd">
        <g id="gsvme-logo--en--color" transform="translate(0.000000, 1.000000)">
            <path d="M127.484415,48.6883469 C128.411347,48.6782236 129.3285,48.8812002 130.167677,49.281879 C130.967742,49.6652036 131.685986,50.2048015 132.281793,50.8698773 C132.884787,51.5501806 133.355064,52.3409896 133.667552,53.2002799 C134.001016,54.1117179 134.168751,55.0772603 134.162483,56.0497785 C134.166411,56.4178756 134.137244,56.7855473 134.075314,57.1482 L124.276218,57.1482 C124.326614,57.6349695 124.465265,58.1080427 124.684984,58.543345 C124.89225,58.950404 125.174149,59.3132268 125.515637,59.6122472 C125.861721,59.9123735 126.256781,60.1484423 126.68293,60.3098197 C127.135155,60.4806399 127.614291,60.56605 128.096687,60.5617115 C128.84694,60.5790657 129.587833,60.3894451 130.240806,60.0130111 C130.764989,59.7170532 131.241701,59.3415551 131.654562,58.8993621 L133.810799,61.0981617 C133.11604,61.9402678 132.230144,62.5973471 131.22975,63.0124027 C130.211387,63.4534047 129.116136,63.6805411 128.009518,63.680456 C127.008372,63.6898137 126.014413,63.5085299 125.07879,63.1461325 C123.300563,62.4681261 121.883129,61.0623473 121.171153,59.2705218 C120.781192,58.2953664 120.587632,57.2504539 120.602007,56.1976298 C120.596491,55.2217089 120.759295,54.2525084 121.082981,53.3338395 C121.391123,52.454728 121.861483,51.6436724 122.468656,50.9443134 C123.734067,49.4791559 125.568206,48.6542339 127.484415,48.6883469 Z M178.84874,48.6883469 C179.775671,48.6782236 180.692824,48.8811151 181.532002,49.281879 C182.331982,49.6652036 183.05031,50.2048015 183.646117,50.8698773 C184.249446,51.5498403 184.719723,52.3408195 185.031792,53.2002799 C185.36534,54.1116328 185.533076,55.0771753 185.526808,56.0497785 C185.530736,56.4178756 185.501484,56.7854623 185.439639,57.1482 L175.640459,57.1482 C175.690938,57.6349695 175.82959,58.1079576 176.049308,58.543345 C176.256408,58.9506592 176.538808,59.3136522 176.880964,59.6122472 C177.226547,59.9125437 177.621272,60.1486124 178.047171,60.3098197 C178.499479,60.4806399 178.978532,60.56605 179.460927,60.5617115 C180.211264,60.5790657 180.952158,60.3894451 181.60513,60.0130111 C182.129313,59.7170532 182.606025,59.3415551 183.018886,58.8993621 L185.180138,61.0981617 C184.484459,61.9406081 183.597477,62.5976874 182.59608,63.0124027 C181.577049,63.4536599 180.481128,63.6808007 179.373758,63.680456 C178.372612,63.6898137 177.378737,63.5085299 176.443114,63.1461325 C174.664887,62.468041 173.247453,61.0623473 172.535477,59.2705218 C172.145516,58.2953664 171.951956,57.2503688 171.966331,56.1976298 C171.960815,55.2217089 172.123536,54.2525084 172.447222,53.3338395 C172.755698,52.4548981 173.226058,51.6439276 173.832981,50.9443134 C175.098391,49.4791559 176.93253,48.6542339 178.84874,48.6883469 Z M201.789526,42.3079915 L201.789526,63.3836985 L198.139384,63.3836985 L198.139384,62.2261535 C197.594892,62.7181122 196.960641,63.0961625 196.272734,63.3388667 C195.605471,63.5673642 194.905864,63.682889 194.201743,63.6804684 C193.170928,63.6841651 192.151479,63.4615374 191.212847,63.0277664 C190.309735,62.6212177 189.508333,62.0125432 188.868315,61.2470849 C188.295074,60.5776705 187.84569,59.808214 187.541728,58.9758059 C187.21637,58.0880173 187.053399,57.1472302 187.060753,56.1997225 C187.050975,55.1842441 187.234088,54.1765921 187.599896,53.2318918 C187.941635,52.3505685 188.446428,51.5442768 189.086781,50.8565724 C189.714262,50.1878385 190.462677,49.648666 191.291074,49.2686592 C192.143707,48.8793797 193.068883,48.6821878 194.003336,48.6903545 C195.558334,48.6903545 196.89002,49.1353548 197.998142,50.0253552 L197.998142,42.3079915 L201.789526,42.3079915 Z M241.255423,48.6903886 C242.182271,48.6802653 243.099508,48.8832418 243.938685,49.2839207 C244.738666,49.6672453 245.456994,50.2068431 246.052801,50.871919 C246.655461,51.5522223 247.12532,52.3430313 247.437473,53.2022365 C247.773528,54.1131641 247.943353,55.0788766 247.938422,56.0518202 C247.94235,56.4198322 247.913182,56.787589 247.851337,57.1502416 L238.049148,57.1502416 C238.099126,57.6370962 238.237694,58.1101695 238.457998,58.5454717 C238.664846,58.9527009 238.946912,59.3155237 239.288567,59.6142038 C239.634317,59.9143301 240.029042,60.150484 240.454857,60.3117763 C240.9075,60.4826816 241.386887,60.5680066 241.869617,60.5637531 C242.619619,60.5812775 243.360178,60.3916569 244.012816,60.0150528 C244.537417,59.7193501 245.014464,59.3437669 245.427575,58.9013188 L247.587741,61.0981617 C246.892814,61.9400126 246.006918,62.5970068 245.006691,63.0124027 C243.987744,63.4536599 242.891823,63.6808007 241.784453,63.680456 C240.783307,63.6898137 239.789432,63.5085299 238.853726,63.1461325 C237.075916,62.4675306 235.65865,61.061922 234.946089,59.2705218 C234.556963,58.2951112 234.363821,57.2502837 234.378029,56.1976298 C234.372429,55.2217089 234.535234,54.2525084 234.85892,53.3338395 C235.167646,52.4554085 235.638341,51.6450335 236.245598,50.9463551 C237.509671,49.4828139 239.341219,48.658062 241.255423,48.6903886 Z M161.82853,41.6582953 C162.209716,41.6577944 162.590651,41.6777858 162.969748,41.7184492 C163.354361,41.7627705 163.735547,41.8333785 164.110966,41.9295924 L163.517833,45.2788762 C163.332046,45.2345548 163.144086,45.2005269 162.954704,45.1768775 C162.758219,45.1478687 162.560063,45.1325561 162.361572,45.1310249 C161.393689,45.1310249 160.672603,45.4127761 160.198314,45.9764487 C160.027069,46.2252779 159.896859,46.5009041 159.812615,46.7923533 C159.713077,47.1146829 159.663684,47.6177858 159.664353,48.3017471 L159.664353,48.7545737 L164.110966,48.7545737 L164.110966,52.0733175 L159.664353,52.0733175 L159.664353,63.3938983 L155.810705,63.3938983 L155.810705,52.0733175 L152.103482,52.0733175 L152.103482,48.7494696 L155.810705,48.7494696 L155.810705,48.1457291 C155.810705,46.9585798 155.938993,45.9931224 156.195569,45.2492719 C156.429997,44.5411508 156.82631,43.8997243 157.35183,43.377821 C157.900166,42.8523447 158.538179,42.4330356 159.234443,42.1407357 C159.975921,41.8197673 160.840589,41.6589853 161.82853,41.6582953 Z M108.147671,42.6047405 L113.717533,56.794301 L119.316563,42.6047405 L123.370373,42.6047405 L115.117333,63.383724 L112.346902,63.383724 L104.093778,42.6047405 L108.147671,42.6047405 Z M150.199841,48.9871716 L150.199841,63.383707 L146.408457,63.383707 L146.408457,48.9871716 L150.199841,48.9871716 Z M170.338062,48.7494866 L170.33614,63.383707 L166.484582,63.383707 L166.484582,48.7494866 L170.338062,48.7494866 Z M215.129498,42.604715 L222.565926,55.0472817 L230.002438,42.604715 L232.772869,42.604715 L232.772869,63.3836985 L228.836148,63.3836985 L228.836148,51.8071425 L223.936558,59.9661036 L221.195295,59.9661036 L216.295705,51.8071425 L216.295705,63.3836985 L212.358984,63.3836985 L212.358984,42.604715 L215.129498,42.604715 Z M143.66803,48.690329 C143.9399,48.690329 144.168394,48.7001971 144.353429,48.7199333 C144.537796,48.7393292 144.73612,48.7689335 144.954585,48.8086611 L144.513726,52.4006491 C144.322172,52.3513937 144.127192,52.3173658 143.930539,52.2986504 C143.669117,52.2684506 143.406189,52.2534783 143.143011,52.2538186 C142.745194,52.2510964 142.349967,52.3201731 141.975718,52.457731 C141.622613,52.5895041 141.286224,52.7638122 140.97382,52.976827 C140.691754,53.1683191 140.432504,53.3924781 140.201252,53.6448803 C140.009865,53.8517701 139.8433,54.0812034 139.705317,54.3282461 L139.705317,63.3817163 L135.909921,63.3817163 L135.909921,48.9871376 L139.556052,48.9871376 L139.556052,50.4414912 C140.019309,49.8802006 140.609683,49.4419209 141.276362,49.1645933 C142.033134,48.8408175 142.847323,48.679355 143.66803,48.690329 Z M194.49434,52.2518024 C193.477816,52.2302798 192.504751,52.6710265 191.840078,53.4541792 C191.524833,53.8269552 191.277785,54.2542609 191.110635,54.7158497 C190.754689,55.7044461 190.760037,56.7904473 191.125678,57.7753857 C191.301437,58.2372297 191.569629,58.6568791 191.91329,59.0074519 C192.62092,59.7247606 193.58078,60.1246738 194.579419,60.1180383 C195.265738,60.1260349 195.942947,59.9577668 196.548281,59.6285466 C197.121774,59.3188925 197.615953,58.8766995 197.991122,58.3373569 L197.993127,54.0335047 C197.599238,53.4947576 197.090934,53.0534153 196.506243,52.742315 C195.886116,52.4109681 195.194615,52.2422746 194.49434,52.2518024 Z M127.48241,51.8142373 C126.730401,51.7969682 126.000373,52.0727645 125.441506,52.5852251 C124.877708,53.1006631 124.547085,53.6846674 124.449553,54.3374081 L130.281925,54.3333248 C130.240304,54.0083581 130.146867,53.6924938 130.005375,53.3981523 C129.860121,53.0930919 129.662633,52.8167851 129.422271,52.5822476 C129.172298,52.3413299 128.88037,52.150093 128.561615,52.0182348 C128.218455,51.8789755 127.851812,51.8096436 127.48241,51.8142373 Z M178.851748,51.8142373 C178.09974,51.7969682 177.369628,52.0727645 176.810761,52.5852251 C176.246964,53.1006631 175.91634,53.6846674 175.818808,54.3374081 L181.65118,54.3333248 C181.609643,54.0083581 181.516206,53.6924938 181.37463,53.3981523 C181.229376,53.0930919 181.031972,52.8167851 180.791526,52.5822476 C180.541637,52.3413299 180.249625,52.150093 179.93087,52.0182348 C179.587794,51.8789755 179.22115,51.8096436 178.851748,51.8142373 Z M241.261441,51.8132165 C240.509098,51.7961175 239.778818,52.0719138 239.21945,52.5842043 C238.654984,53.0996423 238.324695,53.6836466 238.2285,54.3363873 L244.060872,54.3333248 C244.019335,54.0083581 243.925898,53.6924938 243.784322,53.3981523 C243.488717,52.7709325 242.973894,52.2785484 242.340562,52.0172139 C241.997486,51.8779546 241.630759,51.8087078 241.261441,51.8132165 Z M150.054504,42.1295235 C151.00492,43.0672481 151.028572,44.6116907 150.10724,45.5791046 C150.08994,45.5972245 150.072389,45.6151742 150.054504,45.6327837 C149.074252,46.5819076 147.534966,46.5819076 146.554714,45.6327837 C146.077667,45.1809779 145.8124,44.5437199 145.82527,43.8806006 C145.812651,43.2179068 146.077918,42.580989 146.554714,42.1295235 C147.534966,41.1803145 149.074252,41.1803145 150.054504,42.1295235 Z M170.187878,41.7786105 C171.153755,42.7301164 171.178995,44.2983785 170.244291,45.2815304 L170.187878,45.3390376 L170.187878,45.3390376 C169.191914,46.3044099 167.626886,46.3044099 166.630922,45.3390376 C166.146186,44.8802561 165.876573,44.2329598 165.889444,43.559377 C165.87649,42.8854539 166.146103,42.2378174 166.630922,41.7786105 C167.626886,40.8133233 169.191914,40.8133233 170.187878,41.7786105 Z" id="v.me" fill="#000000"></path>
            <path d="M204.554917,61.0982043 C204.539707,60.4047151 204.802717,59.7347903 205.283358,59.2430017 C205.755557,58.7441523 206.411621,58.469717 207.091839,58.4863056 C208.494062,58.4709931 209.642885,59.6155224 209.657929,61.0428238 C209.65818,61.0611989 209.65818,61.079659 209.657929,61.0982043 C209.672722,61.7888861 209.403275,62.4544724 208.914445,62.9339258 C208.431297,63.4231624 207.773227,63.6909621 207.091839,63.6753944 C205.717614,63.7027018 204.581745,62.5908393 204.554917,61.1919512 C204.554292,61.1590292 204.554292,61.1260221 204.554917,61.093015 L204.554917,61.0982043 Z" id="dot" fill="#000F9E"></path>
            <path d="M86.152,59.0980692 C86.824,59.0980692 87.528,58.9060692 88.04,58.6020692 C89.176,57.9300692 89.96,56.6820692 89.96,55.1780692 C89.96,53.6740692 89.16,52.4100692 88.024,51.7380692 C87.512,51.4340692 86.888,51.2580692 86.184,51.2580692 C85.368,51.2580692 84.552,51.5140692 83.88,52.0740692 L83.88,47.5780692 L82.36,47.5780692 L82.36,58.9380692 L83.832,58.9380692 L83.832,58.2500692 C84.44,58.7940692 85.256,59.0980692 86.152,59.0980692 Z M85.944,57.6580692 C85.176,57.6580692 84.392,57.2740692 83.88,56.5860692 L83.88,53.7700692 C84.344,53.1620692 85.112,52.6980692 86.024,52.6980692 C87.48,52.6980692 88.44,53.8660692 88.44,55.1780692 C88.44,56.5220692 87.4,57.6580692 85.944,57.6580692 Z M93.64,62.7780692 L98.584,51.4180692 L96.984,51.4180692 L94.824,56.3780692 L92.472,51.4180692 L90.84,51.4180692 L94.056,58.1540692 L92.024,62.7780692 L93.64,62.7780692 Z" id="by" fill="#000000" fill-rule="nonzero"></path>
            <path d="M90.542,26.29 C93.674,26.29 96.69,24.724 98.43,22.52 L98.43,13.675 L89.73,13.675 L89.73,16.43 L95.53,16.43 L95.53,21.65 C94.457,22.723 92.688,23.535 90.542,23.535 C86.221,23.535 82.915,20.432 82.915,15.85 C82.915,11.471 86.134,8.165 90.281,8.165 C92.456,8.165 94.573,9.151 95.762,10.456 L97.705,8.542 C95.936,6.599 93.181,5.41 90.281,5.41 C84.423,5.41 80.015,9.992 80.015,15.85 C80.015,21.853 84.481,26.29 90.542,26.29 Z M108.667,26.29 C112.698,26.29 115.714,23.245 115.714,19.185 C115.714,15.125 112.698,12.08 108.667,12.08 C104.636,12.08 101.62,15.125 101.62,19.185 C101.62,23.245 104.636,26.29 108.667,26.29 Z M108.667,23.68 C106.144,23.68 104.375,21.679 104.375,19.185 C104.375,16.691 106.144,14.69 108.667,14.69 C111.19,14.69 112.959,16.691 112.959,19.185 C112.959,21.679 111.19,23.68 108.667,23.68 Z M125.139,26 L131.055,12.37 L128.213,12.37 L124.182,21.65 L120.151,12.37 L117.309,12.37 L123.225,26 L125.139,26 Z M139.697,26.29 C142.481,26.29 144.424,25.043 145.439,23.738 L143.641,22.027 C142.858,22.897 141.756,23.883 139.726,23.883 C137.348,23.883 135.463,22.056 135.318,19.765 L145.816,19.765 C145.845,19.504 145.845,19.301 145.845,19.185 C145.845,15.154 143.09,12.08 139.291,12.08 C135.434,12.08 132.65,15.096 132.65,19.185 C132.65,23.274 135.724,26.29 139.697,26.29 Z M142.974,17.445 L135.55,17.445 C136.014,15.676 137.609,14.487 139.378,14.487 C141.002,14.487 142.568,15.705 142.974,17.445 Z M152.37,26 L152.37,16.981 C153.124,15.676 154.632,14.69 156.053,14.69 C156.488,14.69 156.807,14.719 157.126,14.806 L157.445,12.167 C157.126,12.109 156.662,12.08 156.372,12.08 C154.371,12.08 152.95,13.008 152.283,13.936 L152.283,12.37 L149.615,12.37 L149.615,26 L152.37,26 Z M163.535,26 L163.535,16.633 C164.347,15.647 165.652,14.69 167.45,14.69 C168.581,14.69 169.625,15.212 170.263,16.024 C170.756,16.633 171.075,17.445 171.075,19.185 L171.075,26 L173.83,26 L173.83,19.33 C173.83,16.981 173.366,15.589 172.496,14.487 C171.336,13.008 169.538,12.08 167.537,12.08 C165.565,12.08 164.173,12.979 163.448,13.675 L163.448,12.37 L160.78,12.37 L160.78,26 L163.535,26 Z M181.225,26 L181.225,16.633 C182.008,15.705 183.371,14.69 185.053,14.69 C186.097,14.69 187.083,15.154 187.692,15.879 C188.185,16.459 188.475,17.213 188.475,18.605 L188.475,26 L191.23,26 L191.23,19.04 C191.23,18.083 191.143,17.3 190.998,16.633 C191.897,15.705 193.173,14.69 195.145,14.69 C196.16,14.69 197.088,15.154 197.697,15.879 C198.19,16.459 198.48,17.213 198.48,18.605 L198.48,26 L201.235,26 L201.235,19.04 C201.235,16.749 200.829,15.415 199.988,14.371 C198.857,12.95 197.088,12.08 195.145,12.08 C192.68,12.08 191.201,13.095 189.954,14.342 C188.823,12.979 187.141,12.08 185.14,12.08 C183.284,12.08 181.689,13.066 181.138,13.675 L181.138,12.37 L178.47,12.37 L178.47,26 L181.225,26 Z M211.762,26.29 C214.546,26.29 216.489,25.043 217.504,23.738 L215.706,22.027 C214.923,22.897 213.821,23.883 211.791,23.883 C209.413,23.883 207.528,22.056 207.383,19.765 L217.881,19.765 C217.91,19.504 217.91,19.301 217.91,19.185 C217.91,15.154 215.155,12.08 211.356,12.08 C207.499,12.08 204.715,15.096 204.715,19.185 C204.715,23.274 207.789,26.29 211.762,26.29 Z M215.039,17.445 L207.615,17.445 C208.079,15.676 209.674,14.487 211.443,14.487 C213.067,14.487 214.633,15.705 215.039,17.445 Z M224.435,26 L224.435,16.633 C225.247,15.647 226.552,14.69 228.35,14.69 C229.481,14.69 230.525,15.212 231.163,16.024 C231.656,16.633 231.975,17.445 231.975,19.185 L231.975,26 L234.73,26 L234.73,19.33 C234.73,16.981 234.266,15.589 233.396,14.487 C232.236,13.008 230.438,12.08 228.437,12.08 C226.465,12.08 225.073,12.979 224.348,13.675 L224.348,12.37 L221.68,12.37 L221.68,26 L224.435,26 Z M245.634,26.29 C246.417,26.29 247.258,26.174 247.78,26 L247.229,23.506 C246.823,23.622 246.127,23.68 245.721,23.68 C244.996,23.68 244.213,23.419 243.836,22.955 C243.488,22.549 243.43,21.94 243.43,21.215 L243.43,14.835 L247.78,14.835 L247.78,12.37 L243.43,12.37 L243.43,8.6 L240.675,8.6 L240.675,12.37 L237.195,12.37 L237.195,14.835 L240.675,14.835 L240.675,21.07 C240.675,22.549 240.965,23.796 241.777,24.695 C242.647,25.681 243.923,26.29 245.634,26.29 Z M264.89,26.29 C268.428,26.29 271.183,23.97 271.183,20.403 C271.183,18.083 269.907,16.662 268.544,15.763 C265.934,14.023 261.613,13.472 261.613,10.891 C261.613,9.122 263.295,8.165 264.977,8.165 C266.253,8.165 267.5,8.629 268.602,9.557 L270.313,7.44 C269.24,6.541 267.442,5.41 264.861,5.41 C261.323,5.41 258.713,7.846 258.713,10.804 C258.713,12.921 259.844,14.313 261.294,15.27 C263.991,17.039 268.283,17.387 268.283,20.49 C268.283,22.317 266.63,23.535 264.745,23.535 C262.657,23.535 260.975,22.375 259.786,20.925 L257.785,22.897 C259.583,25.072 262.106,26.29 264.89,26.29 Z M276.171,9.325 C277.186,9.325 277.998,8.542 277.998,7.527 C277.998,6.512 277.186,5.7 276.171,5.7 C275.156,5.7 274.373,6.512 274.373,7.527 C274.373,8.542 275.156,9.325 276.171,9.325 Z M277.563,26 L277.563,12.37 L274.808,12.37 L274.808,26 L277.563,26 Z M288.409,33.25 C291.106,33.25 293.194,32.003 294.296,29.886 C294.847,28.813 295.108,27.45 295.108,25.42 L295.108,12.37 L292.44,12.37 L292.44,13.617 C291.193,12.544 289.714,12.08 288.177,12.08 C286.901,12.08 285.77,12.399 284.842,12.95 C282.783,14.168 281.333,16.459 281.333,19.185 C281.333,21.911 282.754,24.173 284.813,25.391 C285.741,25.942 287.017,26.29 288.235,26.29 C289.859,26.29 291.251,25.768 292.353,24.811 L292.353,25.565 C292.353,27.276 292.092,28.32 291.599,29.074 C290.932,30.089 289.772,30.64 288.293,30.64 C286.06,30.64 284.784,29.509 283.798,28.204 L281.768,30.089 C282.638,31.452 284.871,33.25 288.409,33.25 Z M288.612,23.68 C285.973,23.68 284.088,21.621 284.088,19.185 C284.088,16.807 285.828,14.69 288.467,14.69 C290.12,14.69 291.512,15.531 292.353,16.633 L292.353,21.737 C291.425,22.984 290.004,23.68 288.612,23.68 Z M302.793,26 L302.793,16.633 C303.605,15.647 304.91,14.69 306.708,14.69 C307.839,14.69 308.883,15.212 309.521,16.024 C310.014,16.633 310.333,17.445 310.333,19.185 L310.333,26 L313.088,26 L313.088,19.33 C313.088,16.981 312.624,15.589 311.754,14.487 C310.594,13.008 308.796,12.08 306.795,12.08 C304.823,12.08 303.431,12.979 302.706,13.675 L302.706,12.37 L300.038,12.37 L300.038,26 L302.793,26 Z M326.283,19.765 L326.283,17.445 L317.583,17.445 L317.583,19.765 L326.283,19.765 Z M334.113,26 L334.113,5.7 L331.213,5.7 L331.213,26 L334.113,26 Z M341.943,26 L341.943,16.633 C342.755,15.647 344.06,14.69 345.858,14.69 C346.989,14.69 348.033,15.212 348.671,16.024 C349.164,16.633 349.483,17.445 349.483,19.185 L349.483,26 L352.238,26 L352.238,19.33 C352.238,16.981 351.774,15.589 350.904,14.487 C349.744,13.008 347.946,12.08 345.945,12.08 C343.973,12.08 342.581,12.979 341.856,13.675 L341.856,12.37 L339.188,12.37 L339.188,26 L341.943,26 Z" id="GovernmentSign-In" fill="#000000" fill-rule="nonzero"></path>
            <path d="M52,33.6024367 L52,47.5381837 L29.5309347,60.6670531 L6.99824639,47.5381837 L6.99824639,21.2828388 L29.5309347,8.1541102 L42.3111287,15.6001959 C42.3301068,15.577102 43.8693304,13.7555959 46.9287997,10.1356776 L29.5309347,2.84217094e-14 L-5.58178472e-05,17.204798 L-5.58178472e-05,51.6163653 L29.5309347,68.8210224 L59,51.6163653 L59,25.3313082 C58.7585878,25.6163204 56.4252545,28.3733633 52,33.6024367 Z" id="hex" fill="#000F9E"></path>
            <path d="M60.2748696,13.2986381 C59.2524273,11.2696762 57.556717,10.1344991 55.2739871,10.0104952 C53.1495421,9.89099549 51.4889442,10.7985742 50.13781,12.3955635 C49.7522692,12.8551238 49.3644992,13.3124319 48.9777044,13.7697401 C48.1350046,14.7692308 47.2910508,15.7688623 46.4470971,16.768353 C42.7849479,21.1066578 39.1215447,25.4496075 35.4559121,29.7832675 C33.8920129,31.6330502 32.3247697,33.4919819 30.7143325,35.3945471 C29.1208943,34.0089695 27.5866735,32.6739225 26.0307164,31.3457723 C24.0801618,29.6729168 22.2081923,27.9129348 20.1564803,26.4032126 C18.3479084,25.0704176 16.2518878,25.0611278 14.2729088,26.0814501 C12.2621613,27.1223223 11.1465037,28.8548573 11.0110698,31.1505472 C10.8870614,33.287467 11.812805,34.9601818 13.3927278,36.3252094 C17.9340826,40.2544845 22.4811501,44.1975535 27.0099648,48.1430153 C30.1149121,50.8383043 33.6304806,50.5900151 36.2782689,47.4605015 C40.8695058,42.0307939 45.4508498,36.6031976 50.0331692,31.17349 C51.5605625,29.3628368 53.0903246,27.5544356 54.6177179,25.7436416 C56.4317239,23.597432 58.2949153,21.492604 59.9564885,19.2339323 C61.2906238,17.4094853 61.2882551,15.2931154 60.2748696,13.2986381" id="check" fill="#000F9E"></path>
        </g>
    </g>
</svg>